# xmcd
#
# Track frame offsets:
#  150
#  12456
#  24001
#  42294
#  58777
#  75226
#  89627
#  102959
#  123392
#  145261
#  155003
#  174448
#  186245
#  203327
#  220173
#  231271
#  243779
#  259345
#  276041
#
# Disc length: 4012 seconds
#
# Revision: 0
# Processed by: cddbd v1.5.2PL0 Copyright (c) Steve Scherf et al.
# Submitted via: AltoMP3_Maker 3.0
#
DISCID=fd0faa13
DTITLE=Anthologies - Country Rock - Truckers, Kickers, Cowboy Angels, Vol. 4, disc 1
DYEAR=1900
DGENRE=
TTITLE0=Commander Cody and LPA - Hot Rod Lincoln
TTITLE1=Hoyt Axton - Never Been to Spain
TTITLE2=Link Wray - La De Da
TTITLE3=Gene Clark - White Light
TTITLE4=Alex Harvey - Tulsa Turnaround
TTITLE5=Kris Kristofferson - The Pilgrim Chapter 33
TTITLE6=Johnny Cash - Singing in Viet Nam Talking Blues
TTITLE7=Lonnie Mack - Three Angels
TTITLE8=Flying Burrito Bros - Colorado
TTITLE9=Michael Nesmith - Grand Ennui
TTITLE10=The Band - When I Paint My Masterpiece
TTITLE11=New Riders of the Purple Sage - Henry
TTITLE12=Commander Cody - Seeds and Stems Again
TTITLE13=John Prine - Angel from Montgomery
TTITLE14=J.J. Cale - Crazy Mama
TTITLE15=Brave Belt - Crazy Arms, Crazy Eyes
TTITLE16=Cochise - Lost Hearts
TTITLE17=Cowboy - Please Be with Me
TTITLE18=Heads, Hands and Feet - Country Boy
EXTD=
EXTT0=
EXTT1=
EXTT2=
EXTT3=
EXTT4=
EXTT5=
EXTT6=
EXTT7=
EXTT8=
EXTT9=
EXTT10=
EXTT11=
EXTT12=
EXTT13=
EXTT14=
EXTT15=
EXTT16=
EXTT17=
EXTT18=
PLAYORDER=
